<svg xmlns="http://www.w3.org/2000/svg" viewBox="0 0 32 32" width="25px" height="25px" baseProfile="basic">
  <polygon fill="#7498a6" points="6,6 8,29 24,29 26,6" />
  <rect width="10.012" height="1" x="15.244" y="17.5" fill="#fff" transform="rotate(-87.146 20.25 18)" />
  <rect width="1" height="10" x="15.5" y="13" fill="#fff" />
  <rect width="1" height="10.012" x="11.25" y="12.994" fill="#fff" transform="rotate(-2.86 11.759 18.013)" />
  <path fill="#302529" d="M24.917,30H7.083L4.909,5h22.182L24.917,30z M8.917,28h14.166l1.826-21H7.091L8.917,28z" />
  <polygon fill="#302529" points="20,6 18,6 18,4 14,4 14,6 12,6 12,2 20,2" />
  <rect width="25.5" height="2" x="3.5" y="5" fill="#302529" />
</svg>